#N canvas 335 181 909 506 10;
#X obj 110 120 hsl 130 15 0 1 0 0 empty empty empty -2 -8 0 10 -204786
-1 -1 12900 1;
#X floatatom 109 148 5 0 0 3 Floor - -;
#X floatatom 158 148 5 0 0 3 Max - -;
#X floatatom 209 149 5 0 0 3 Value - -;
#X obj 40 212 -;
#X obj 6 235 *;
#X obj 145 290 +;
#X obj 103 69 inlet;
#X obj 147 69 inlet;
#X obj 194 69 inlet;
#X obj 236 201 outlet;
#X floatatom 293 45 5 0 0 0 - - -;
#X floatatom 295 120 5 0 0 0 - - -;
#X obj 292 95 expr 1/(1-$f1);
#X connect 0 0 5 0;
#X connect 1 0 4 1;
#X connect 1 0 6 1;
#X connect 2 0 4 0;
#X connect 3 0 10 0;
#X connect 4 0 5 1;
#X connect 5 0 6 0;
#X connect 6 0 3 0;
#X connect 7 0 0 0;
#X connect 8 0 1 0;
#X connect 9 0 2 0;
#X connect 11 0 13 0;
#X connect 13 0 12 0;
#X coords 0 -1 1 1 150 80 1 100 100;
