#N canvas 385 31 1920 908 10;
#X obj 1143 774 line;
#X msg 1058 687 1 1000;
#X floatatom 1143 804 5 0 0 0 - - -;
#X text 1064 670 Attack;
#X obj 1058 585 bng 15 250 50 0 empty empty empty 17 7 0 10 -262144
-1 -1;
#X obj 1120 615 del 1000;
#X msg 1120 687 0.5 500;
#X obj 1179 664 del 500;
#X text 1121 669 Decay;
#X obj 1179 688 del 2000;
#X text 1237 689 Sustain;
#X msg 1179 729 0 1500;
#X text 1185 713 release;
#X obj -25 227 bng 15 250 50 0 empty empty empty 17 7 0 10 -262144
-1 -1;
#X obj 677 798 pack f f;
#X obj 677 648 vsl 15 40 0 1 0 0 empty empty empty 0 -9 0 10 -262144
-1 -1 0 1;
#X floatatom 677 705 5 0 0 0 - - -;
#X floatatom 722 770 5 0 0 0 - - -;
#X text 734 792 crea un mensaje con dos informaciones separadas;
#X obj 677 849 line;
#X floatatom 677 886 5 0 0 0 - - -;
#X obj 677 738 float;
#X text 718 737 guarda un numero por la izquierda \, solo se ejecuta
por al derecha;
#X obj -40 68 inlet;
#X obj -40 451 outlet~;
#X obj 33 68 inlet;
#X obj 69 68 inlet;
#X obj 105 68 inlet;
#X obj 141 68 inlet;
#X obj 177 68 inlet;
#X obj 213 68 inlet;
#X floatatom 605 52 5 0 0 0 - - -;
#X obj 605 94 spigot;
#X obj 605 72 == 0;
#X msg 612 170 stop;
#X floatatom 629 125 5 0 0 0 - - -;
#X obj 591 126 sel 1;
#X floatatom 704 35 5 0 0 0 - - -;
#X obj 716 56 / 127;
#X floatatom 724 81 5 0 0 0 - - -;
#X obj 696 130 *;
#X obj 727 130 *;
#X floatatom 690 158 5 0 0 0 - - -;
#X floatatom 732 157 5 0 0 0 - - -;
#X obj 663 177 float;
#X obj 705 176 float;
#X obj 260 -3 loadbang;
#X msg 260 16 0;
#X obj 104 143 vsl 15 40 0 1 0 0 empty empty empty 0 -9 0 10 -258113
-1 -1 3900 1;
#X floatatom 104 189 5 0 0 0 - - -;
#X floatatom 122 170 5 0 0 0 - - -;
#X obj 157 143 vsl 15 40 0 1 0 0 empty empty empty 0 -9 0 10 -260097
-1 -1 1600 1;
#X floatatom 157 189 5 0 0 0 - - -;
#X floatatom 175 170 5 0 0 0 - - -;
#X floatatom 251 170 5 0 0 0 - - -;
#X text 105 127 A;
#X text 161 124 D;
#X text 174 156 tD;
#X text 120 156 tA;
#X text 251 153 tR;
#X obj 209 121 cnv 15 40 70 empty empty empty 20 12 0 14 -204800 -66577
0;
#X floatatom 213 170 5 0 0 0 - - -;
#X text 213 152 tS;
#X obj 221 138 tgl 15 0 empty empty empty 17 7 0 10 -262144 -1 -1 1
1;
#X text 210 120 NoteOf;
#X obj 290 119 cnv 15 49 90 empty empty empty 20 12 0 14 -191407 -66577
0;
#X obj 293 123 tgl 15 0 empty empty empty 17 7 0 10 -262144 -1 -1 1
1;
#X text 310 123 Vel;
#X obj 101 103 cnv 15 238 15 empty empty empty 20 12 0 14 -128992 -66577
0;
#X text 101 102 T;
#X obj 293 140 tgl 15 0 empty empty empty 17 7 0 10 -262144 -1 -1 1
1;
#X text 311 139 Lin;
#X obj 293 157 tgl 15 0 empty empty empty 17 7 0 10 -262144 -1 -1 0
1;
#X text 311 156 Log;
#X obj 51 125 change;
#X obj 51 145 change;
#X obj -3 68 inlet;
#X obj 374 147 sel 1;
#X msg 374 166 0;
#X obj 374 128 change;
#X obj 416 147 sel 1;
#X msg 416 166 0;
#X obj 416 128 change;
#X obj 293 174 tgl 15 0 empty empty empty 17 7 0 10 -262144 -1 -1 0
1;
#X text 311 173 Exp;
#X obj 293 191 tgl 15 0 empty empty empty 17 7 0 10 -262144 -1 -1 1
1;
#X text 311 190 Rev;
#X obj 458 147 sel 1;
#X msg 458 166 0;
#X obj 458 128 change;
#X obj 375 90 loadbang;
#X msg 375 109 1;
#X floatatom 2 284 5 0 0 0 - - -;
#X floatatom 37 284 5 0 0 0 - - -;
#X floatatom 72 284 5 0 0 0 - - -;
#X floatatom 107 284 5 0 0 0 - - -;
#X floatatom 142 284 5 0 0 0 - - -;
#X floatatom 177 284 5 0 0 0 - - -;
#X obj -25 346 pack f f;
#X obj -25 369 line;
#X obj 22 325 del;
#X obj -25 325 float;
#X obj -25 285 bng 15 250 50 0 empty empty empty 17 7 0 10 -262144
-1 -1;
#X obj 45 346 pack f f;
#X obj 45 325 float;
#X obj 92 325 del;
#X obj 127 325 del;
#X obj 154 385 pack f f;
#X msg 154 364 0;
#X floatatom -25 398 5 0 0 0 - - -;
#X obj -25 257 spigot;
#X obj 514 271 spigot;
#X obj 514 355 pack f f;
#X obj 514 378 line;
#X obj 551 334 del;
#X obj 514 334 float;
#X obj 599 428 pack f f;
#X obj 599 407 float;
#X obj 640 407 del;
#X obj 655 449 pack f f;
#X msg 655 428 0;
#X obj 514 301 bng 15 250 50 0 empty empty empty 17 7 0 10 -262144
-1 -1;
#X obj 576 334 del;
#X obj 165 341 spigot;
#X obj 198 321 !=;
#X msg 213 301 1;
#X obj 213 281 loadbang;
#X obj 576 355 spigot;
#X obj 609 335 !=;
#X msg 624 315 1;
#X obj 624 295 loadbang;
#X obj 18 257 spigot;
#X obj 51 238 tgl 15 0 empty empty empty 17 7 0 10 -262144 -1 -1 0
1;
#X obj 215 362 tgl 15 0 empty empty empty 17 7 0 10 -262144 -1 -1 0
1;
#X obj 557 271 spigot;
#X obj 590 252 tgl 15 0 empty empty empty 17 7 0 10 -262144 -1 -1 1
1;
#X obj 634 353 tgl 15 0 empty empty empty 17 7 0 10 -262144 -1 -1 0
1;
#X obj 636 385 bng 15 250 50 0 empty empty empty 17 7 0 10 -262144
-1 -1;
#X obj 293 213 != 1;
#X floatatom 663 196 5 0 0 0 - - -;
#X floatatom 705 196 5 0 0 0 - - -;
#X obj 135 256 bng 15 250 50 0 empty empty empty 17 7 0 10 -262144
-1 -1;
#X obj 683 82 > 0;
#X obj 683 102 sel 1;
#X obj 663 215 spigot;
#X obj 705 215 spigot;
#X obj 261 213 != 1;
#X obj 261 233 bng 15 250 50 0 empty empty empty 17 7 0 10 -262144
-1 -1;
#X obj 23 421 line~;
#X obj 516 423 line~;
#X text 123 102 V;
#X obj 251 68 inlet;
#X obj 296 20 inlet;
#X obj 296 40 sel 1 2 3;
#X msg 296 60 1;
#X msg 313 79 1;
#X msg 330 60 1;
#X obj 376 35 inlet;
#X text 295 102 PARAM;
#X text 162 102 E N V E L O P E;
#X text 134 105 I;
#X text 134 99 I;
#X text 274 105 I;
#X text 274 99 I;
#X connect 0 0 2 0;
#X connect 1 0 0 0;
#X connect 4 0 1 0;
#X connect 4 0 5 0;
#X connect 5 0 6 0;
#X connect 5 0 7 0;
#X connect 6 0 0 0;
#X connect 7 0 9 0;
#X connect 9 0 11 0;
#X connect 11 0 0 0;
#X connect 13 0 110 0;
#X connect 13 0 111 0;
#X connect 14 0 19 0;
#X connect 15 0 16 0;
#X connect 16 0 21 0;
#X connect 17 0 14 1;
#X connect 19 0 20 0;
#X connect 21 0 14 0;
#X connect 23 0 13 0;
#X connect 25 0 48 0;
#X connect 26 0 50 0;
#X connect 27 0 51 0;
#X connect 28 0 53 0;
#X connect 29 0 61 0;
#X connect 30 0 54 0;
#X connect 31 0 33 0;
#X connect 32 0 35 0;
#X connect 32 0 36 0;
#X connect 33 0 32 0;
#X connect 34 0 100 0;
#X connect 34 0 105 0;
#X connect 34 0 106 0;
#X connect 34 0 114 0;
#X connect 34 0 122 0;
#X connect 34 0 118 0;
#X connect 36 0 34 0;
#X connect 36 0 134 0;
#X connect 36 0 131 0;
#X connect 37 0 38 0;
#X connect 38 0 39 0;
#X connect 38 0 142 0;
#X connect 39 0 40 0;
#X connect 39 0 41 0;
#X connect 40 0 42 0;
#X connect 41 0 43 0;
#X connect 42 0 44 1;
#X connect 43 0 45 1;
#X connect 44 0 139 0;
#X connect 45 0 140 0;
#X connect 46 0 47 0;
#X connect 47 0 66 0;
#X connect 47 0 63 0;
#X connect 47 0 85 0;
#X connect 48 0 49 0;
#X connect 49 0 74 0;
#X connect 49 0 40 1;
#X connect 49 0 92 0;
#X connect 50 0 93 0;
#X connect 51 0 52 0;
#X connect 52 0 75 0;
#X connect 52 0 41 1;
#X connect 52 0 94 0;
#X connect 53 0 95 0;
#X connect 54 0 97 0;
#X connect 61 0 96 0;
#X connect 63 0 32 1;
#X connect 63 0 124 0;
#X connect 63 0 128 0;
#X connect 66 0 144 1;
#X connect 66 0 145 1;
#X connect 66 0 146 0;
#X connect 70 0 79 0;
#X connect 72 0 82 0;
#X connect 74 0 48 0;
#X connect 75 0 51 0;
#X connect 76 0 37 0;
#X connect 76 0 31 0;
#X connect 77 0 78 0;
#X connect 78 0 72 0;
#X connect 78 0 83 0;
#X connect 79 0 77 0;
#X connect 80 0 81 0;
#X connect 81 0 70 0;
#X connect 81 0 83 0;
#X connect 82 0 80 0;
#X connect 83 0 89 0;
#X connect 85 0 135 0;
#X connect 85 0 138 0;
#X connect 87 0 88 0;
#X connect 88 0 70 0;
#X connect 88 0 72 0;
#X connect 89 0 87 0;
#X connect 90 0 91 0;
#X connect 91 0 70 0;
#X connect 92 0 117 1;
#X connect 92 0 101 1;
#X connect 93 0 98 1;
#X connect 93 0 100 1;
#X connect 93 0 119 1;
#X connect 94 0 104 1;
#X connect 94 0 115 1;
#X connect 95 0 103 1;
#X connect 95 0 105 1;
#X connect 95 0 118 1;
#X connect 95 0 116 1;
#X connect 96 0 106 1;
#X connect 96 0 122 1;
#X connect 97 0 107 1;
#X connect 97 0 112 1;
#X connect 97 0 114 1;
#X connect 98 0 99 0;
#X connect 98 0 148 0;
#X connect 99 0 109 0;
#X connect 100 0 104 0;
#X connect 100 0 105 0;
#X connect 101 0 98 0;
#X connect 102 0 100 0;
#X connect 102 0 101 0;
#X connect 103 0 99 0;
#X connect 103 0 148 0;
#X connect 104 0 103 0;
#X connect 105 0 106 0;
#X connect 106 0 123 0;
#X connect 107 0 99 0;
#X connect 107 0 148 0;
#X connect 108 0 107 0;
#X connect 110 0 102 0;
#X connect 111 0 121 0;
#X connect 112 0 113 0;
#X connect 112 0 149 0;
#X connect 113 0 109 0;
#X connect 114 0 122 0;
#X connect 115 0 112 0;
#X connect 116 0 113 0;
#X connect 116 0 149 0;
#X connect 117 0 116 0;
#X connect 117 0 137 0;
#X connect 118 0 120 0;
#X connect 119 0 113 0;
#X connect 119 0 149 0;
#X connect 120 0 119 0;
#X connect 121 0 114 0;
#X connect 121 0 115 0;
#X connect 122 0 127 0;
#X connect 123 0 108 0;
#X connect 124 0 123 1;
#X connect 124 0 133 0;
#X connect 125 0 124 1;
#X connect 126 0 125 0;
#X connect 127 0 117 0;
#X connect 128 0 127 1;
#X connect 128 0 136 0;
#X connect 129 0 128 1;
#X connect 130 0 129 0;
#X connect 131 0 108 0;
#X connect 132 0 131 1;
#X connect 132 0 110 1;
#X connect 134 0 117 0;
#X connect 135 0 134 1;
#X connect 135 0 111 1;
#X connect 137 0 118 0;
#X connect 138 0 132 0;
#X connect 139 0 144 0;
#X connect 140 0 145 0;
#X connect 141 0 92 0;
#X connect 141 0 93 0;
#X connect 141 0 94 0;
#X connect 141 0 95 0;
#X connect 141 0 96 0;
#X connect 141 0 97 0;
#X connect 142 0 143 0;
#X connect 143 0 44 0;
#X connect 143 0 45 0;
#X connect 144 0 92 0;
#X connect 145 0 94 0;
#X connect 146 0 147 0;
#X connect 147 0 49 0;
#X connect 147 0 52 0;
#X connect 148 0 24 0;
#X connect 149 0 24 0;
#X connect 151 0 66 0;
#X connect 152 0 153 0;
#X connect 153 0 154 0;
#X connect 153 1 155 0;
#X connect 153 2 156 0;
#X connect 154 0 70 0;
#X connect 155 0 72 0;
#X connect 156 0 83 0;
#X connect 157 0 85 0;
#X coords 0 -1 1 1 240 110 1 100 100;
