#N canvas 326 36 1920 908 10;
#X obj 101 115 cnv 15 198 83 empty empty empty 20 12 0 14 -162280 -66577
0;
#X obj 1143 774 line;
#X msg 1058 687 1 1000;
#X floatatom 1143 804 5 0 0 0 - - -;
#X text 1064 670 Attack;
#X obj 1058 585 bng 15 250 50 0 empty empty empty 17 7 0 10 -262144
-1 -1;
#X obj 1120 615 del 1000;
#X msg 1120 687 0.5 500;
#X obj 1179 664 del 500;
#X text 1121 669 Decay;
#X obj 1179 688 del 2000;
#X text 1237 689 Sustain;
#X msg 1179 729 0 1500;
#X text 1185 713 release;
#X obj 59 210 bng 15 250 50 0 empty empty empty 17 7 0 10 -262144 -1
-1;
#X obj 677 798 pack f f;
#X obj 677 648 vsl 15 40 0 1 0 0 empty empty empty 0 -9 0 10 -262144
-1 -1 0 1;
#X floatatom 677 705 5 0 0 0 - - -;
#X floatatom 722 770 5 0 0 0 - - -;
#X text 734 792 crea un mensaje con dos informaciones separadas;
#X obj 677 849 line;
#X floatatom 677 886 5 0 0 0 - - -;
#X obj 677 738 float;
#X text 718 737 guarda un numero por la izquierda \, solo se ejecuta
por al derecha;
#X obj 59 367 pack f f;
#X obj 105 132 vsl 15 40 0 1 0 0 empty empty empty 0 -9 0 10 -99865
-1 -1 900 1;
#X floatatom 105 180 5 0 0 0 - - -;
#X obj 59 341 float;
#X floatatom 126 156 5 0 0 0 - - -;
#X obj 177 252 del;
#X obj 177 367 pack f f;
#X obj 164 132 vsl 15 40 0 100 0 0 empty empty empty 0 -9 0 10 -162280
-1 -1 3900 1;
#X floatatom 164 181 5 0 0 0 - - -;
#X obj 177 341 float;
#X floatatom 186 158 5 0 0 0 - - -;
#X obj 258 282 del;
#X obj 301 337 del;
#X floatatom 223 158 5 0 0 0 - - -;
#X msg 389 332 0;
#X floatatom 262 158 5 0 0 0 - - -;
#X obj 389 366 pack f f;
#X obj 59 417 line~;
#X obj 59 167 inlet;
#X obj 59 454 outlet~;
#X obj 81 68 inlet;
#X text 108 113 A;
#X text 168 113 D;
#X obj 136 69 inlet;
#X obj 181 68 inlet;
#X obj 227 69 inlet;
#X obj 279 68 inlet;
#X obj 330 70 inlet;
#X text 223 140 tS;
#X text 185 140 tD;
#X text 125 139 tA;
#X text 262 141 tR;
#X obj 193 428 line;
#X floatatom 194 502 5 0 0 0 - - -;
#X obj 230 268 bng 15 250 50 0 empty empty empty 17 7 0 10 -262144
-1 -1;
#X obj 334 324 bng 15 250 50 0 empty empty empty 17 7 0 10 -262144
-1 -1;
#X obj 336 346 bng 15 250 50 0 empty empty empty 17 7 0 10 -262144
-1 -1;
#X obj 113 213 change;
#X obj 166 216 change;
#X connect 1 0 3 0;
#X connect 2 0 1 0;
#X connect 5 0 2 0;
#X connect 5 0 6 0;
#X connect 6 0 7 0;
#X connect 6 0 8 0;
#X connect 7 0 1 0;
#X connect 8 0 10 0;
#X connect 10 0 12 0;
#X connect 12 0 1 0;
#X connect 14 0 27 0;
#X connect 14 0 29 0;
#X connect 15 0 20 0;
#X connect 16 0 17 0;
#X connect 17 0 22 0;
#X connect 18 0 15 1;
#X connect 20 0 21 0;
#X connect 22 0 15 0;
#X connect 24 0 41 0;
#X connect 24 0 56 0;
#X connect 25 0 26 0;
#X connect 26 0 27 1;
#X connect 26 0 61 0;
#X connect 27 0 24 0;
#X connect 28 0 24 1;
#X connect 28 0 29 1;
#X connect 29 0 33 0;
#X connect 29 0 35 0;
#X connect 29 0 58 0;
#X connect 30 0 41 0;
#X connect 30 0 56 0;
#X connect 31 0 32 0;
#X connect 32 0 33 1;
#X connect 32 0 62 0;
#X connect 33 0 30 0;
#X connect 34 0 30 1;
#X connect 34 0 35 1;
#X connect 35 0 36 0;
#X connect 35 0 59 0;
#X connect 36 0 60 0;
#X connect 36 0 38 0;
#X connect 37 0 36 1;
#X connect 38 0 40 0;
#X connect 39 0 40 1;
#X connect 40 0 41 0;
#X connect 40 0 56 0;
#X connect 41 0 43 0;
#X connect 42 0 14 0;
#X connect 44 0 25 0;
#X connect 47 0 28 0;
#X connect 48 0 31 0;
#X connect 49 0 34 0;
#X connect 50 0 37 0;
#X connect 51 0 39 0;
#X connect 56 0 57 0;
#X connect 61 0 25 0;
#X connect 62 0 31 0;
#X coords 0 -1 1 1 200 100 1 100 100;
