#N canvas 527 62 1116 542 10;
#X obj 40 602 +~;
#X obj 77 505 osc~;
#X obj 77 582 *~;
#X obj 245 469 triangulo;
#X obj 189 527 spigot~;
#X obj 245 527 spigot~;
#X obj 128 468 phasor~;
#X obj 77 526 spigot~;
#X obj 128 526 spigot~;
#X obj 262 104 cnv 15 2 115 empty empty empty 20 12 0 14 -66577 -66577
0;
#X obj 101 120 cnv 15 160 97 empty empty OSC 20 12 0 14 -128992 -33289
0;
#X obj 177 104 cnv 15 2 115 empty empty empty 20 12 0 14 -66577 -66577
0;
#X obj 101 104 cnv 15 238 15 empty empty empty 20 12 0 14 -196609 -66577
0;
#X text 103 103 PORTADORA;
#X text 183 103 MODULADORA;
#X obj 104 125 tgl 15 0 empty empty empty 17 7 0 10 -262144 -1 -1 0
1;
#X obj 104 172 tgl 15 0 empty empty SQUARE 17 7 0 14 -262144 -1 -1
0 1;
#X obj 104 197 tgl 15 0 empty empty TRI 17 7 0 14 -262144 -1 -1 0 1
;
#X text 36 221 comment;
#X obj 104 148 tgl 15 0 empty empty PHASOR 17 7 0 14 -262144 -1 -1
1 1;
#X obj 184 124 tgl 15 0 empty empty OSC 17 7 0 14 -262144 -1 -1 0 1
;
#X obj 184 171 tgl 15 0 empty empty SQUARE 17 7 0 14 -262144 -1 -1
0 1;
#X obj 184 196 tgl 15 0 empty empty TRI 17 7 0 14 -262144 -1 -1 0 1
;
#X obj 184 147 tgl 15 0 empty empty PHASOR 17 7 0 14 -262144 -1 -1
1 1;
#X obj 33 225 change;
#X obj 43 245 change;
#X obj 53 265 change;
#X obj 63 285 change;
#X obj 6 244 sel 1;
#X msg 6 264 0;
#X obj 16 284 sel 1;
#X msg 16 304 0;
#X obj 26 324 sel 1;
#X msg 26 344 0;
#X obj 66 314 sel 1;
#X msg 66 334 0;
#X obj 136 222 change;
#X obj 146 242 change;
#X obj 156 262 change;
#X obj 166 282 change;
#X obj 109 241 sel 1;
#X msg 109 261 0;
#X obj 119 281 sel 1;
#X msg 119 301 0;
#X obj 129 321 sel 1;
#X msg 129 341 0;
#X obj 169 311 sel 1;
#X msg 169 331 0;
#X obj 40 624 osc~;
#X obj 208 624 triangulo;
#X obj 152 646 spigot~;
#X obj 208 646 spigot~;
#X obj 91 624 phasor~;
#X obj 40 645 spigot~;
#X obj 91 645 spigot~;
#X obj 268 124 knob 32 32 0 1 0 0 empty empty empty 0 -8 0 8 -262144
-1 -1 620 1;
#X floatatom 306 129 5 0 0 3 Floor - -;
#X floatatom 306 161 5 0 0 3 Max - -;
#X floatatom 268 161 5 0 0 3 Value - -;
#X obj 483 281 -;
#X obj 456 324 *;
#X obj 429 367 +;
#X obj 267 193 cnv 15 70 24 empty empty empty 20 12 0 14 -191407 -66577
0;
#X floatatom 294 197 5 0 0 0 Q: - -;
#X obj 40 668 outlet~;
#X obj 229 16 inlet;
#X obj 342 16 inlet;
#X obj 394 170 change;
#X obj 394 190 bng 15 250 50 0 empty empty empty 17 7 0 10 -262144
-1 -1;
#X obj 448 163 change;
#X obj 448 183 bng 15 250 50 0 empty empty empty 17 7 0 10 -262144
-1 -1;
#X obj 128 487 *~ 2;
#X obj 128 506 -~ 1;
#X obj 189 488 *~ 2;
#X obj 189 507 -~ 1;
#X obj 245 488 *~ 2;
#X obj 245 507 -~ 1;
#X obj 36 19 inlet;
#X obj 36 39 sel 1 2 3 4;
#X msg 36 59 1;
#X msg 51 79 1;
#X msg 67 59 1;
#X msg 83 79 1;
#X obj 128 19 inlet;
#X obj 128 39 sel 1 2 3 4;
#X msg 128 59 1;
#X msg 143 79 1;
#X msg 159 59 1;
#X msg 175 79 1;
#X obj 266 16 inlet;
#X obj 304 16 inlet;
#X obj 405 16 loadbang;
#X msg 406 36 1;
#X msg 435 37 2;
#X msg 463 37 100;
#X obj 189 469 sq~;
#X obj 297 297 *~;
#X obj 5 379 inlet~;
#X obj 152 624 sq~;
#X obj 92 5 loadbang;
#X msg 212 49 0;
#X obj 482 260 bondo;
#X obj 456 301 bondo;
#X obj 429 345 bondo;
#X connect 0 0 48 0;
#X connect 0 0 52 0;
#X connect 0 0 49 0;
#X connect 0 0 98 0;
#X connect 1 0 7 0;
#X connect 2 0 0 1;
#X connect 3 0 75 0;
#X connect 4 1 2 0;
#X connect 5 1 2 0;
#X connect 6 0 71 0;
#X connect 7 1 2 0;
#X connect 8 1 2 0;
#X connect 15 0 24 0;
#X connect 15 0 53 1;
#X connect 16 0 26 0;
#X connect 16 0 50 1;
#X connect 17 0 27 0;
#X connect 17 0 51 1;
#X connect 19 0 25 0;
#X connect 19 0 54 1;
#X connect 20 0 36 0;
#X connect 20 0 1 1;
#X connect 20 0 7 1;
#X connect 21 0 38 0;
#X connect 21 0 4 1;
#X connect 21 0 95 1;
#X connect 22 0 39 0;
#X connect 22 0 3 1;
#X connect 22 0 5 1;
#X connect 23 0 37 0;
#X connect 23 0 6 1;
#X connect 23 0 8 1;
#X connect 24 0 28 0;
#X connect 25 0 30 0;
#X connect 26 0 32 0;
#X connect 27 0 34 0;
#X connect 28 0 29 0;
#X connect 29 0 19 0;
#X connect 29 0 16 0;
#X connect 29 0 17 0;
#X connect 30 0 31 0;
#X connect 31 0 15 0;
#X connect 31 0 16 0;
#X connect 31 0 17 0;
#X connect 32 0 33 0;
#X connect 33 0 15 0;
#X connect 33 0 19 0;
#X connect 33 0 17 0;
#X connect 34 0 35 0;
#X connect 35 0 15 0;
#X connect 35 0 19 0;
#X connect 35 0 16 0;
#X connect 36 0 40 0;
#X connect 37 0 42 0;
#X connect 38 0 44 0;
#X connect 39 0 46 0;
#X connect 40 0 41 0;
#X connect 41 0 23 0;
#X connect 41 0 21 0;
#X connect 41 0 22 0;
#X connect 42 0 43 0;
#X connect 43 0 20 0;
#X connect 43 0 21 0;
#X connect 43 0 22 0;
#X connect 44 0 45 0;
#X connect 45 0 20 0;
#X connect 45 0 23 0;
#X connect 45 0 22 0;
#X connect 46 0 47 0;
#X connect 47 0 20 0;
#X connect 47 0 23 0;
#X connect 47 0 21 0;
#X connect 48 0 53 0;
#X connect 49 0 51 0;
#X connect 50 1 64 0;
#X connect 51 1 64 0;
#X connect 52 0 54 0;
#X connect 53 1 64 0;
#X connect 54 1 64 0;
#X connect 55 0 58 0;
#X connect 55 0 102 0;
#X connect 56 0 69 0;
#X connect 56 0 101 1;
#X connect 56 0 103 0;
#X connect 57 0 67 0;
#X connect 57 0 101 0;
#X connect 58 0 96 1;
#X connect 59 0 102 1;
#X connect 60 0 103 1;
#X connect 61 0 58 0;
#X connect 63 0 2 1;
#X connect 65 0 55 0;
#X connect 66 0 63 0;
#X connect 67 0 68 0;
#X connect 68 0 56 0;
#X connect 69 0 70 0;
#X connect 70 0 57 0;
#X connect 71 0 72 0;
#X connect 72 0 8 0;
#X connect 73 0 74 0;
#X connect 74 0 4 0;
#X connect 75 0 76 0;
#X connect 76 0 5 0;
#X connect 77 0 78 0;
#X connect 78 0 79 0;
#X connect 78 1 80 0;
#X connect 78 2 81 0;
#X connect 78 3 82 0;
#X connect 79 0 15 0;
#X connect 80 0 19 0;
#X connect 81 0 16 0;
#X connect 82 0 17 0;
#X connect 83 0 84 0;
#X connect 84 0 85 0;
#X connect 84 1 86 0;
#X connect 84 2 87 0;
#X connect 84 3 88 0;
#X connect 85 0 20 0;
#X connect 86 0 23 0;
#X connect 87 0 21 0;
#X connect 88 0 22 0;
#X connect 89 0 56 0;
#X connect 90 0 57 0;
#X connect 91 0 92 0;
#X connect 91 0 93 0;
#X connect 91 0 94 0;
#X connect 92 0 56 0;
#X connect 93 0 57 0;
#X connect 94 0 63 0;
#X connect 95 0 73 0;
#X connect 96 0 1 0;
#X connect 96 0 6 0;
#X connect 96 0 95 0;
#X connect 96 0 3 0;
#X connect 97 0 96 0;
#X connect 97 0 0 0;
#X connect 98 0 50 0;
#X connect 99 0 79 0;
#X connect 99 0 85 0;
#X connect 99 0 100 0;
#X connect 100 0 55 0;
#X connect 101 0 59 0;
#X connect 101 1 59 1;
#X connect 102 0 60 0;
#X connect 102 1 60 1;
#X connect 103 0 61 0;
#X connect 103 1 61 1;
#X coords 0 -1 1 1 240 120 1 100 100;
