#N canvas 265 32 704 241 10;
#X msg 52 -263 440;
#X obj 52 -111 output~;
#X obj 52 -236 fmsynth~;
#X text 374 -298 FM SYNTHESIS;
#X text 374 -276 Inlets;
#X text 375 -252 0 - signal frecuency;
#X text 375 -235 1 - osctype \, 1=osc \, 2=phasor \, 3=square \, 4=triangle
;
#X text 375 -215 2 - fm osctype \, 1=osc \, 2=phasor \, 3=square \,
4=triangle;
#X text 375 -195 3 - ratio percentage. 0-1;
#X text 375 -175 4 - ratio min;
#X text 375 -155 5 - ratio max;
#X text 375 -135 6 - Q value;
#X text 375 -105 Outlets;
#X text 376 -81 0 - Signal;
#X connect 0 0 2 0;
#X connect 2 0 1 0;
#X connect 2 0 1 1;
#X coords 0 241 1 240 240 120 0;
