#N canvas 334 199 450 300 10;
#X obj 59 10 inlet;
#X obj 80 49 inlet;
#X obj 13 31 osc~;
#X obj 13 51 +~ 1;
#X obj 13 71 /~ 2;
#X obj 13 173 *~;
#X obj 59 131 -;
#X floatatom 59 150 5 0 0 0 - - -;
#X obj 13 194 +~;
#X obj 13 214 outlet~;
#X obj 13 10 inlet~;
#X obj 65 92 bng 15 250 50 0 empty empty empty 17 7 0 10 -262144 -1
-1;
#X floatatom 193 138 5 0 0 0 - - -;
#X floatatom 148 138 5 0 0 0 - - -;
#X obj 59 109 swap;
#X obj 59 30 f \$1;
#X obj 80 68 f \$2;
#X floatatom 102 90 5 0 0 0 - - -;
#X floatatom 128 47 5 0 0 0 - - -;
#X obj 100 9 loadbang;
#X connect 0 0 15 0;
#X connect 1 0 16 0;
#X connect 2 0 3 0;
#X connect 3 0 4 0;
#X connect 4 0 5 0;
#X connect 5 0 8 0;
#X connect 6 0 7 0;
#X connect 7 0 5 1;
#X connect 8 0 9 0;
#X connect 10 0 2 0;
#X connect 11 0 14 0;
#X connect 14 0 6 0;
#X connect 14 1 6 1;
#X connect 15 0 8 1;
#X connect 15 0 14 0;
#X connect 15 0 18 0;
#X connect 16 0 14 1;
#X connect 16 0 11 0;
#X connect 16 0 17 0;
#X connect 19 0 15 0;
#X connect 19 0 16 0;
