#N canvas 553 78 484 480 10;
#X obj 101 103 cnv 15 78 234 empty empty empty 20 12 0 14 -162280 -66577
0;
#X obj 16 130 inlet~;
#X obj 108 115 knob 32 32 -45 45 0 0 empty empty empty 0 -8 0 8 -258113
-1 -1 1550 1;
#X floatatom 108 154 5 0 0 0 - - -;
#X obj 225 131 change;
#X obj 124 181 vu 13 120 empty empty -1 -8 0 10 -66577 -1 1 0;
#X obj 107 181 vsl 15 119 0.01 1.01 1 0 empty empty empty 0 -9 0 10
-262144 -1 -1 4130 1;
#X obj 48 191 change;
#X obj 16 345 *~;
#X obj 207 411 pvu~;
#X floatatom 144 309 5 0 0 0 - - -;
#X floatatom 31 241 5 0 0 0 - - -;
#X text 105 323 fValue;
#X text 152 324 dB;
#X text 145 155 Pan;
#X obj 16 430 outlet~;
#X obj 37 455 outlet~;
#X obj 67 72 inlet;
#X obj 111 72 inlet;
#X obj 315 329 float;
#X obj 71 350 - 0.01;
#X floatatom 107 309 5 0 0 0 - - -;
#X obj 37 372 swifter;
#X obj 16 400 pan~;
#X obj 31 274 * 4;
#X floatatom 62 273 5 0 0 0 - - -;
#X obj 31 306 - 0.03999;
#X obj 128 374 + 0.01;
#X obj 93 391 * 4;
#X obj 125 348 / 4;
#X obj 31 220 swifter;
#X connect 1 0 8 0;
#X connect 2 0 3 0;
#X connect 3 0 4 0;
#X connect 3 0 22 0;
#X connect 4 0 2 0;
#X connect 6 0 20 0;
#X connect 6 0 30 0;
#X connect 7 0 6 0;
#X connect 8 0 9 0;
#X connect 8 0 23 0;
#X connect 9 0 5 0;
#X connect 9 0 10 0;
#X connect 11 0 24 0;
#X connect 17 0 21 0;
#X connect 18 0 2 0;
#X connect 20 0 28 0;
#X connect 21 0 29 0;
#X connect 22 0 23 1;
#X connect 23 0 15 0;
#X connect 23 1 16 0;
#X connect 24 0 25 0;
#X connect 24 0 26 0;
#X connect 26 0 8 1;
#X connect 27 0 7 0;
#X connect 28 0 21 0;
#X connect 29 0 27 0;
#X connect 30 0 11 0;
#X coords 0 -1 1 1 80 240 1 100 100;
