#N canvas 624 156 450 300 10;
#X obj 12 88 exp~;
#X obj 55 38 \$1;
#X obj 55 15 loadbang;
#X obj 55 59 exp;
#X obj 12 15 inlet~;
#X obj 12 110 -~;
#X obj 55 83 expr 1-$f1;
#X obj 12 153 outlet~;
#X obj 12 132 /~;
#X connect 0 0 5 0;
#X connect 1 0 3 0;
#X connect 2 0 1 0;
#X connect 3 0 5 1;
#X connect 3 0 6 0;
#X connect 4 0 0 0;
#X connect 5 0 8 0;
#X connect 6 0 8 1;
#X connect 8 0 7 0;
