#N canvas 0 22 450 300 10;
#X obj 15 48 exp~;
#X msg 15 25 -7;
#X obj 15 70 vtof;
#X floatatom 15 89 15 0 0 0 - - -;
#X obj 117 69 vtof;
#X floatatom 117 88 15 0 0 0 - - -;
#X msg 147 27 0;
#X text 260 5 NORMALIZED EXPONENTIAL;
#X text 260 27 Useful for creating exp curves;
#X text 260 44 between 0 and 1;
#X msg 117 27 -7;
#X obj 117 49 nexp~ -7;
#X text 14 4 Click me;
#X text 116 6 Click me;
#X msg 46 25 0;
#X connect 0 0 2 0;
#X connect 1 0 0 0;
#X connect 2 0 3 0;
#X connect 4 0 5 0;
#X connect 6 0 11 0;
#X connect 10 0 11 0;
#X connect 11 0 4 0;
#X connect 14 0 0 0;
