#N canvas 378 40 673 858 10;
#X obj 485 111 gemwin;
#X msg 416 73 create \, 1;
#X msg 475 46 destroy;
#X obj -15 513 gemhead;
#X obj 79 338 phasor~;
#X obj 79 472 *~;
#X obj 79 361 -~ 0.5;
#X obj 178 568 *~;
#X obj 186 162 vsl 15 50 0 10 0 0 empty empty amp 0 -9 0 10 -262144
-1 -1 4900 1;
#X obj 79 266 *~;
#X obj 110 199 hsl 60 15 0 1 0 0 empty empty zoom -2 -8 0 10 -262144
-1 -1 1300 1;
#X obj 79 313 +~;
#X obj 110 134 hsl 40 15 -1 1 0 0 empty empty displace -2 -8 0 10 -262144
-1 -1 1950 1;
#X msg 164 83 0;
#X obj 62 135 /~ 6;
#X obj 339 640 fiddle~ 2048;
#X obj 211 160 tgl 15 0 empty empty freq 17 7 0 10 -262144 -1 -1 1
1;
#X text 449 553 find freq;
#X floatatom 107 167 5 1 12 1 res - -;
#X obj 94 243 expr~ 6 / $v1;
#X obj 385 684 spigot~;
#X obj 385 662 mtof~;
#X obj 385 759 +~;
#X obj 178 507 inlet~;
#X obj 427 714 spigot~;
#X obj -15 542 color 0 1 0;
#X obj 94 421 *~ 192;
#X obj 94 442 +~ 8;
#X obj -16 571 pix_delay 1200;
#X obj 156 60 loadbang;
#X msg 108 80 1;
#X obj 212 199 tgl 15 0 empty empty on 17 7 0 10 -262144 -1 -1 1 1
;
#X obj 263 156 sel 0 1;
#X obj 464 637 inlet~;
#X obj 157 134 bng 15 250 50 0 empty empty hold 17 7 0 10 -262144 -1
-1;
#X obj 175 535 hip~ 1;
#X msg 88 557 draw point;
#X obj 88 533 loadbang;
#X msg 96 590 length 1000;
#X obj 52 631 scopeXYZ~ 4096;
#X connect 1 0 0 0;
#X connect 2 0 0 0;
#X connect 3 0 25 0;
#X connect 4 0 6 0;
#X connect 5 0 39 1;
#X connect 6 0 5 0;
#X connect 7 0 15 0;
#X connect 7 0 39 2;
#X connect 8 0 7 1;
#X connect 9 0 11 0;
#X connect 10 0 26 0;
#X connect 11 0 4 0;
#X connect 12 0 11 1;
#X connect 13 0 12 0;
#X connect 14 0 9 0;
#X connect 15 2 21 0;
#X connect 16 0 20 1;
#X connect 16 0 24 1;
#X connect 18 0 19 0;
#X connect 19 0 9 1;
#X connect 20 0 22 0;
#X connect 21 0 20 0;
#X connect 22 0 14 0;
#X connect 23 0 35 0;
#X connect 24 1 22 1;
#X connect 25 0 28 0;
#X connect 26 0 27 0;
#X connect 27 0 5 1;
#X connect 28 0 39 0;
#X connect 29 0 13 0;
#X connect 29 0 30 0;
#X connect 30 0 18 0;
#X connect 30 0 16 0;
#X connect 31 0 32 0;
#X connect 32 0 2 0;
#X connect 32 1 1 0;
#X connect 33 0 24 0;
#X connect 34 0 13 0;
#X connect 35 0 7 0;
#X connect 36 0 39 0;
#X connect 37 0 36 0;
#X connect 37 0 38 0;
#X connect 38 0 39 0;
#X coords 0 -1 1 1 160 120 1 100 100;
