#N canvas 132 50 1119 770 10;
#X obj -98 114 vtof;
#X floatatom -98 135 5 0 0 0 - - -;
#X obj -98 -133 bng 15 250 50 0 empty empty empty 17 7 0 10 -262144
-1 -1;
#X obj -70 -75 unpack f f f f f f f f f f f f;
#X obj -70 -118 loadbang;
#X text -99 -152 Click me;
#X obj 282 -50 proenv~;
#X obj 282 114 vtof;
#X floatatom 282 135 5 0 0 0 - - -;
#X obj 310 -75 unpack f f f f f f f f f f f f;
#X obj 310 -118 loadbang;
#X msg -70 -97 1 1000 1 0.2 1000 0 1000 0 1000 1 0 0;
#X msg 282 -176 64;
#X msg 292 -139 0;
#X text 280 -197 Click me;
#X text 291 -156 Then me;
#X obj -98 -50 proenv~;
#X msg 310 -97 1 1000 1 0.2 1000 0 1000 1 1000 1 1 0;
#X obj 642 -50 proenv~;
#X obj 642 114 vtof;
#X floatatom 642 135 5 0 0 0 - - -;
#X obj 670 -75 unpack f f f f f f f f f f f f;
#X obj 670 -118 loadbang;
#X msg 642 -176 64;
#X msg 652 -139 0;
#X text 640 -197 Click me;
#X text 651 -156 Then me;
#X msg 670 -97 1 1000 1 0.2 1000 0 1000 1 1000 1 1 1;
#X text -97 190 Pro Env;
#X text -97 208 Generates envelopes with alot of options;
#X text -97 231 Inlets;
#X text -96 248 0 - (Bang \, Float) Trigger the envelope. Velocity
if float;
#X text -96 268 1 - [0-1] Attack Amplitude;
#X text -96 288 2 - Attack time;
#X text -96 308 3 - Attack curve \, 0 = linear \, 1 = exponential;
#X text -96 328 4 - [0-1] Decay Amplitude;
#X text -96 348 5 - Decay time;
#X text -96 368 6 - Decay curve \, 0 = linear \, 1 = exponential;
#X text -96 388 7 - Sustain time;
#X text -96 408 8 - If 1 then ignore sustain time and wait for 0 vel
;
#X text -96 428 9 - Release time;
#X text -96 448 10- Release curve \, 0 = linear \, 1 = exponential
;
#X text -96 468 11- if 1 then set the max value depending on velocity
;
#X text -96 488 12- if 1 then play the envelope in reverse;
#X text 302 227 Outlet;
#X text 302 247 0 - Envelope signal;
#X text 20 -151 NORMAL USE;
#X text 398 -155 AMPLITUDE AND TIME;
#X text 398 -136 VELOCITY DEPENDENT;
#X text 776 -157 REVERSE ENVELOPE;
#X connect 0 0 1 0;
#X connect 2 0 16 0;
#X connect 3 0 16 1;
#X connect 3 1 16 2;
#X connect 3 2 16 3;
#X connect 3 3 16 4;
#X connect 3 4 16 5;
#X connect 3 5 16 6;
#X connect 3 6 16 7;
#X connect 3 7 16 8;
#X connect 3 8 16 9;
#X connect 3 9 16 10;
#X connect 3 10 16 11;
#X connect 3 11 16 12;
#X connect 4 0 11 0;
#X connect 6 0 7 0;
#X connect 7 0 8 0;
#X connect 9 0 6 1;
#X connect 9 1 6 2;
#X connect 9 2 6 3;
#X connect 9 3 6 4;
#X connect 9 4 6 5;
#X connect 9 5 6 6;
#X connect 9 6 6 7;
#X connect 9 7 6 8;
#X connect 9 8 6 9;
#X connect 9 9 6 10;
#X connect 9 10 6 11;
#X connect 9 11 6 12;
#X connect 10 0 17 0;
#X connect 11 0 3 0;
#X connect 12 0 6 0;
#X connect 13 0 6 0;
#X connect 16 0 0 0;
#X connect 17 0 9 0;
#X connect 18 0 19 0;
#X connect 19 0 20 0;
#X connect 21 0 18 1;
#X connect 21 1 18 2;
#X connect 21 2 18 3;
#X connect 21 3 18 4;
#X connect 21 4 18 5;
#X connect 21 5 18 6;
#X connect 21 6 18 7;
#X connect 21 7 18 8;
#X connect 21 8 18 9;
#X connect 21 9 18 10;
#X connect 21 10 18 11;
#X connect 21 11 18 12;
#X connect 22 0 27 0;
#X connect 23 0 18 0;
#X connect 24 0 18 0;
#X connect 27 0 21 0;
#X coords 0 770 1 769 352 160 0;
