#N canvas 979 219 1118 883 10;
#X obj 101 103 cnv 15 75 146 empty empty empty 20 12 0 14 -241339 -66577
0;
#X obj 101 103 cnv 15 75 15 empty empty empty 20 12 0 14 -2862 -66577
0;
#X text 123 121 Feedback;
#X obj 105 120 cnv 15 17 20 empty empty empty 20 12 0 14 -258113 -66577
0;
#X obj -120 163 inlet~;
#X obj -120 320 outlet~;
#X obj -120 297 +~;
#X obj -86 185 *~;
#X obj -62 185 +~;
#X obj -47 164 *~;
#X floatatom 128 156 5 0 0 0 - - -;
#X obj 105 138 cnv 15 17 3 empty empty empty 20 12 0 14 -1 -66577 0
;
#X obj 106 141 cnv 15 17 33 empty empty empty 20 12 0 14 -4034 -66577
0;
#X obj 104 122 vsl 15 50 0 1.5 0 0 empty empty empty 0 -9 0 10 -191407
-1 -1 2624 1;
#X obj 27 120 change;
#X obj 127 139 tgl 15 0 empty empty Over 17 7 0 10 -262144 -1 -1 0
1;
#X text 102 101 SmartDelay;
#X text 103 181 Volume;
#X obj 181 149 bng 15 250 50 0 empty empty empty 17 7 0 10 -262144
-1 -1;
#X obj 106 196 hsl 65 15 0 1 0 0 empty empty empty -2 -8 0 10 -204786
-1 -1 3800 1;
#X obj 151 59 inlet;
#X obj 188 59 inlet;
#X obj 224 59 inlet;
#X obj 45 45 loadbang;
#X msg 42 68 0;
#X obj 106 232 hsl 65 15 0 1 0 0 empty empty empty -2 -8 0 10 -204786
-1 -1 3200 1;
#X text 103 218 Mix;
#X floatatom 141 178 5 0 0 0 - - -;
#X floatatom 141 214 5 0 0 0 - - -;
#X obj 197 192 change;
#X obj 193 229 change;
#X msg 71 68 0.5;
#X obj -105 230 vsl 15 40 0 1 0 0 empty empty empty 0 -9 0 10 -262144
-1 -1 3900 1;
#X obj -120 276 *~;
#X obj -86 277 *~;
#X obj -71 230 vsl 15 40 0 1 0 0 empty empty empty 0 -9 0 10 -262144
-1 -1 3900 1;
#X obj 103 260 * 2;
#X floatatom 103 282 5 0 0 0 - - -;
#X floatatom 67 302 5 0 0 0 - - -;
#X obj 67 280 - 2;
#X obj 67 322 abs;
#X floatatom 67 342 5 0 0 0 - - -;
#X obj 103 301 clip 0 1;
#X obj 67 361 clip 0 1;
#X floatatom 67 381 5 0 0 0 - - -;
#X floatatom 103 321 5 0 0 0 - - -;
#X obj -62 206 delwrite~ \$0-Del 20000;
#X obj -47 142 delread~ \$0-Del \$1;
#X obj -47 118 inlet;
#N canvas 1466 47 450 300 hold 1;
#X obj 48 7 inlet;
#X obj 12 7 inlet;
#X obj 12 28 spigot;
#X obj 12 47 change;
#X floatatom 12 66 5 0 0 0 - - -;
#X obj 12 85 > 1;
#X msg 12 104 1;
#X obj 12 123 outlet;
#X connect 0 0 2 1;
#X connect 1 0 2 0;
#X connect 2 0 3 0;
#X connect 3 0 4 0;
#X connect 4 0 5 0;
#X connect 5 0 6 0;
#X connect 6 0 7 0;
#X restore 328 244 pd hold;
#X obj 367 224 tgl 15 0 empty empty empty 17 7 0 10 -262144 -1 -1 1
1;
#X connect 4 0 8 0;
#X connect 4 0 33 0;
#X connect 6 0 5 0;
#X connect 7 0 34 0;
#X connect 8 0 46 0;
#X connect 9 0 8 1;
#X connect 9 0 7 0;
#X connect 10 0 14 0;
#X connect 10 0 49 0;
#X connect 13 0 9 1;
#X connect 13 0 10 0;
#X connect 14 0 13 0;
#X connect 15 0 18 0;
#X connect 18 0 10 0;
#X connect 19 0 7 1;
#X connect 19 0 27 0;
#X connect 20 0 10 0;
#X connect 21 0 15 0;
#X connect 22 0 19 0;
#X connect 23 0 24 0;
#X connect 23 0 31 0;
#X connect 24 0 15 0;
#X connect 25 0 28 0;
#X connect 25 0 36 0;
#X connect 27 0 29 0;
#X connect 28 0 30 0;
#X connect 29 0 19 0;
#X connect 30 0 25 0;
#X connect 31 0 25 0;
#X connect 32 0 33 1;
#X connect 33 0 6 0;
#X connect 34 0 6 1;
#X connect 35 0 34 1;
#X connect 36 0 37 0;
#X connect 36 0 39 0;
#X connect 37 0 42 0;
#X connect 38 0 40 0;
#X connect 39 0 38 0;
#X connect 40 0 41 0;
#X connect 41 0 43 0;
#X connect 42 0 45 0;
#X connect 43 0 44 0;
#X connect 44 0 32 0;
#X connect 45 0 35 0;
#X connect 47 0 9 0;
#X connect 48 0 47 0;
#X connect 50 0 49 1;
#X coords 0 -1 1 1 77 152 1 100 100;
