#N canvas 383 122 375 259 10;
#X text 9 6 SWIFTER;
#X text 10 20 Makes a change in values softer Ideal for removing jumping
noise in numbers and sliders;
#X obj 13 75 tgl 15 0 empty empty empty 17 7 0 10 -262144 -1 -1 1 1
;
#X obj 13 56 loadbang;
#X floatatom 13 135 5 0 0 0 - - -;
#X obj 13 94 metro 500;
#X obj 16 154 hsl 128 15 0 127 0 0 empty empty empty -2 -8 0 10 -262144
-1 -1 10100 1;
#X obj 13 116 random 128;
#X obj 13 172 swifter;
#X obj 13 192 vtof;
#X obj 16 212 hsl 128 15 0 127 0 0 empty empty empty -2 -8 0 10 -262144
-1 -1 10100 1;
#X connect 2 0 5 0;
#X connect 3 0 2 0;
#X connect 4 0 6 0;
#X connect 5 0 7 0;
#X connect 6 0 8 0;
#X connect 7 0 4 0;
#X connect 8 0 9 0;
#X connect 9 0 10 0;
