#N canvas 201 369 505 256 10;
#X obj 5 8 r touchOSCconnect;
#X obj 27 71 loadbang;
#X symbolatom 27 145 10 0 0 0 - - -;
#X obj 27 125 symbol \$1;
#X obj 100 145 inlet;
#X obj 100 165 bng 15 250 50 0 empty empty empty 17 7 0 10 -262144
-1 -1;
#X obj 5 231 sendOSC;
#X msg 5 48 disconnect;
#X msg 35 92 \; reconnect bang;
#X obj 5 29 bng 15 250 50 0 empty empty empty 17 7 0 10 -262144 -1
-1;
#X obj 27 165 list append;
#X obj 27 186 list prepend send;
#X obj 27 207 list trim;
#X text 143 6 When created \, it disconnects its current connection
\, and sends a bang to touchOSC for reconnection;
#X text 149 183 Receives a list of values and sends it to the control
set by argument;
#X connect 0 0 9 0;
#X connect 0 0 6 0;
#X connect 1 0 3 0;
#X connect 1 0 8 0;
#X connect 2 0 10 0;
#X connect 3 0 2 0;
#X connect 4 0 10 1;
#X connect 4 0 5 0;
#X connect 5 0 2 0;
#X connect 7 0 6 0;
#X connect 9 0 7 0;
#X connect 10 0 11 0;
#X connect 11 0 12 0;
#X connect 12 0 6 0;
