#N canvas 736 30 866 951 10;
#X floatatom 71 -50 5 0 0 0 - - -;
#X obj 71 400 *~;
#X obj 71 791 master;
#X obj 71 1038 dac~;
#X obj 71 -72 mtof;
#X obj 71 -96 notein;
#X msg 113 208 1;
#X msg 139 188 30;
#X msg 169 209 1;
#X msg 254 208 1;
#X msg 224 187 500;
#X msg 198 207 0;
#X obj 139 153 loadbang;
#X obj 70 628 reverberacion;
#X obj 70 755 lop~;
#X floatatom 92 729 5 0 0 0 - - -;
#X obj 86 235 proEnv;
#X obj 187 -90 ctlin;
#X obj 187 -10 / 127;
#X obj 220 -69 == 1;
#X obj 220 -49 tgl 15 0 empty empty empty 17 7 0 10 -262144 -1 -1 0
1;
#X obj 187 -30 spigot;
#N canvas 1224 180 450 300 arguments 0;
#X obj 56 26 loadbang;
#X obj 69 99 f \$1;
#X floatatom 69 123 5 0 0 0 - - -;
#X obj 81 66 bng 15 250 50 0 empty empty empty 17 7 0 10 -262144 -1
-1;
#X obj 156 54 inlet \$1;
#X connect 0 0 1 0;
#X connect 1 0 2 0;
#X connect 3 0 1 0;
#X connect 4 0 1 0;
#X restore 529 183 pd arguments 14;
#N canvas 1224 180 450 300 arguments 0;
#X obj 56 26 loadbang;
#X obj 69 99 f \$1;
#X floatatom 69 123 5 0 0 0 - - -;
#X obj 81 66 bng 15 250 50 0 empty empty empty 17 7 0 10 -262144 -1
-1;
#X obj 156 54 inlet \$1;
#X msg 156 75 set \$1;
#X msg 156 95 0;
#X connect 0 0 1 0;
#X connect 1 0 2 0;
#X connect 3 0 1 0;
#X connect 4 0 5 0;
#X connect 5 0 6 0;
#X restore 539 218 pd arguments 15;
#N canvas 1224 180 450 300 arguments 0;
#X obj 56 26 loadbang;
#X obj 69 99 f \$1;
#X floatatom 69 123 5 0 0 0 - - -;
#X obj 81 66 bng 15 250 50 0 empty empty empty 17 7 0 10 -262144 -1
-1;
#X obj 156 54 inlet \$1;
#X msg 156 75 set \$1;
#X msg 156 95 0;
#X connect 0 0 1 0;
#X connect 1 0 2 0;
#X connect 3 0 1 0;
#X connect 4 0 5 0;
#X connect 5 0 6 0;
#X restore 550 252 pd arguments 15;
#X obj 71 433 smartdelay;
#X obj 143 405 tgl 15 0 empty empty empty 17 7 0 10 -262144 -1 -1 0
1;
#X obj 70 14 ringmod;
#X obj 416 -73 tgl 15 0 empty empty empty 17 7 0 10 -262144 -1 -1 1
1;
#X obj 490 -87 metro 150;
#X obj 574 -50 shuffle 3;
#X obj 574 -30 + 1;
#X obj 450 726 ctlin;
#X obj 463 775 == 7;
#X obj 430 802 spigot;
#X obj 430 823 / 127;
#X obj 430 844 * 4;
#X msg 519 -7 50;
#X msg 559 -5 3.027;
#X obj 495 -29 loadbang;
#X msg 388 -87 1;
#X floatatom 541 422 5 0 0 0 - - -;
#X obj 541 464 vtof;
#X floatatom 541 484 5 0 0 0 - - -;
#X floatatom 570 407 5 0 0 0 - - -;
#X floatatom 605 408 5 0 0 0 - - -;
#X obj 541 442 lfo~ 12 13;
#X connect 0 0 27 0;
#X connect 1 0 25 0;
#X connect 2 0 3 0;
#X connect 2 1 3 1;
#X connect 4 0 0 0;
#X connect 5 0 4 0;
#X connect 5 1 16 0;
#X connect 6 0 16 1;
#X connect 7 0 16 2;
#X connect 8 0 16 3;
#X connect 9 0 16 6;
#X connect 10 0 16 5;
#X connect 11 0 16 4;
#X connect 12 0 6 0;
#X connect 12 0 7 0;
#X connect 12 0 8 0;
#X connect 12 0 11 0;
#X connect 12 0 10 0;
#X connect 12 0 9 0;
#X connect 13 0 14 0;
#X connect 14 0 2 0;
#X connect 15 0 14 1;
#X connect 16 0 1 1;
#X connect 17 0 21 0;
#X connect 17 1 19 0;
#X connect 18 0 27 3;
#X connect 19 0 20 0;
#X connect 20 0 21 1;
#X connect 21 0 18 0;
#X connect 25 0 13 0;
#X connect 26 0 25 3;
#X connect 27 0 1 0;
#X connect 28 0 29 0;
#X connect 29 0 30 0;
#X connect 30 0 31 0;
#X connect 31 0 27 2;
#X connect 32 0 34 0;
#X connect 32 1 33 0;
#X connect 33 0 34 1;
#X connect 34 0 35 0;
#X connect 35 0 36 0;
#X connect 36 0 2 1;
#X connect 37 0 27 5;
#X connect 38 0 27 6;
#X connect 39 0 37 0;
#X connect 39 0 38 0;
#X connect 39 0 40 0;
#X connect 40 0 28 0;
#X connect 41 0 46 0;
#X connect 42 0 43 0;
#X connect 44 0 46 1;
#X connect 45 0 46 2;
#X connect 46 0 42 0;
