#N canvas 0 22 153 163 10;
#X obj 46 93 snapshot~;
#X msg 90 46 1;
#X obj 90 25 loadbang;
#X obj 46 67 inlet~;
#X obj 46 113 outlet;
#X obj 90 67 metro 10;
#X connect 0 0 4 0;
#X connect 1 0 5 0;
#X connect 2 0 1 0;
#X connect 3 0 0 0;
#X connect 5 0 0 0;
