#N canvas 147 420 513 320 10;
#X obj 15 12 inlet;
#X obj 156 56 inlet;
#X text 62 152 waits until a number on inlet 1 is unchanged for inlet
2 ms and if succesfull returns the number \, else waits.;
#X msg 33 55 stop;
#X obj 93 81 del \$1;
#X obj 15 32 change;
#X msg 15 81 set \$1;
#X msg 15 100 169;
#X obj 93 46 bng 15 250 50 0 empty empty empty 17 7 0 10 -262144 -1
-1;
#X obj 93 101 float;
#X obj 15 224 ==;
#X obj -18 243 spigot;
#X obj 29 189 bng 15 250 50 0 empty empty empty 17 7 0 10 -262144 -1
-1;
#X obj -3 92 bng 15 250 50 0 empty empty empty 17 7 0 10 -262144 -1
-1;
#X msg -15 55 0;
#X obj -18 273 outlet;
#X obj 14 128 change;
#X obj 37 245 bng 15 250 50 0 empty empty empty 17 7 0 10 -262144 -1
-1;
#X obj 126 57 \$1;
#X obj 126 36 loadbang;
#X connect 0 0 5 0;
#X connect 1 0 4 1;
#X connect 3 0 4 0;
#X connect 4 0 9 0;
#X connect 5 0 3 0;
#X connect 5 0 14 0;
#X connect 5 0 6 0;
#X connect 5 0 9 1;
#X connect 6 0 7 0;
#X connect 6 0 8 0;
#X connect 6 0 13 0;
#X connect 7 0 16 0;
#X connect 7 0 11 0;
#X connect 8 0 4 0;
#X connect 9 0 10 1;
#X connect 9 0 12 0;
#X connect 10 0 11 1;
#X connect 10 0 17 0;
#X connect 11 0 15 0;
#X connect 12 0 10 0;
#X connect 13 0 7 0;
#X connect 14 0 10 1;
#X connect 16 0 10 0;
#X connect 17 0 7 0;
#X connect 18 0 4 1;
#X connect 19 0 18 0;
